<?xml version="1.0" encoding="UTF-8" standalone="no"?>
<svg
   width="512pt"
   height="512pt"
   viewBox="0 0 512 512"
   version="1.1"
   id="svg9"
   sodipodi:docname="quebracho-logo.svg"
   inkscape:version="1.4.4 (dcaf3e7, 2026-05-05)"
   inkscape:export-filename="quebracho-logo.png"
   inkscape:export-xdpi="96"
   inkscape:export-ydpi="96"
   xmlns:inkscape="http://www.inkscape.org/namespaces/inkscape"
   xmlns:sodipodi="http://sodipodi.sourceforge.net/DTD/sodipodi-0.dtd"
   xmlns="http://www.w3.org/2000/svg"
   xmlns:svg="http://www.w3.org/2000/svg">
  <defs
     id="defs9" />
  <sodipodi:namedview
     id="namedview9"
     pagecolor="#ffffff"
     bordercolor="#000000"
     borderopacity="0.25"
     inkscape:showpageshadow="2"
     inkscape:pageopacity="0.0"
     inkscape:pagecheckerboard="true"
     inkscape:deskcolor="#d1d1d1"
     inkscape:document-units="pt"
     showgrid="false"
     inkscape:zoom="0.59106445"
     inkscape:cx="454.26518"
     inkscape:cy="523.63156"
     inkscape:window-width="1920"
     inkscape:window-height="1009"
     inkscape:window-x="-8"
     inkscape:window-y="-8"
     inkscape:window-maximized="1"
     inkscape:current-layer="g10" />
  <g
     id="g9"
     transform="matrix(0.96086763,0,0,0.985517,-482.44203,-236.83551)">
    <g
       id="#233136fe">
      <rect
         style="fill:#233136;fill-opacity:1;stroke-width:1.63126;stroke-dasharray:none"
         id="rect10"
         width="532.85175"
         height="519.52429"
         x="502.09"
         y="240.31601"
         rx="41.629044" />
    </g>
    <g
       id="g10"
       transform="matrix(1.0610136,0,0,1.0337548,-45.951326,-11.426786)">
      <path
         fill="#83f0a8"
         opacity="1"
         d="m 766.51,309.22 c 2.18,-2.28 4.74,0.24 6.47,1.76 7.99,7.36 15.9,14.81 24.02,22.02 1.32,1.32 3.32,2.71 2.78,4.87 -0.63,1.28 -1.59,2.37 -2.62,3.34 -9.13,7.87 -17.87,16.21 -27.04,24.03 -1.37,1.46 -3.45,0.61 -4.64,-0.6 -8.56,-7.84 -17.16,-15.63 -25.9,-23.27 -1.14,-1.22 -2.81,-2.51 -2.58,-4.36 0.73,-1.79 2.25,-3.08 3.62,-4.38 8.72,-7.69 17.07,-15.82 25.89,-23.41 z"
         id="path2"
         style="fill:#c9f083;fill-opacity:1" />
      <path
         fill="#83f0a8"
         opacity="1"
         d="m 709.81,356.78 c 1.2,-1.03 3.17,-1.15 4.37,-0.04 11.3,9 22.02,18.71 33.41,27.61 3.42,3.02 7.18,5.64 10.37,8.93 1.68,10.61 0.07,21.5 0.66,32.2 0.13,0.31 0.39,0.92 0.51,1.22 3.8,1.16 7.21,4 11.41,3.3 2.33,-1.63 5.18,-2.31 7.48,-4.01 -0.07,-8.68 0.05,-17.36 -0.01,-26.03 0.01,-2.9 0.07,-6.39 2.66,-8.27 13.54,-11.85 27.51,-23.2 41.16,-34.92 2.47,-2.07 5.36,0.29 7.28,1.95 4.81,4.41 10.87,7.36 15.25,12.23 -2.45,3 -5.56,5.31 -8.49,7.8 -10.57,9.25 -21.47,18.1 -31.88,27.52 -0.38,4.12 -0.52,8.26 -0.27,12.39 7.88,-2.13 15.37,-5.48 23.16,-7.92 17.58,-5.95 35.09,-12.13 52.63,-18.19 3.08,-1.07 6.74,-2.86 9.88,-1.04 2.74,3.14 3.41,7.47 4.47,11.38 0.47,3.26 2.33,7.11 0.05,10.07 -16.94,5.68 -33.47,12.58 -50.37,18.31 0.4,0.36 1.21,1.08 1.61,1.43 16.75,5.87 33.49,11.83 50.29,17.56 3.47,1.48 7.22,2.23 10.59,3.97 -0.15,7.14 0.15,14.29 -0.16,21.42 0.09,1.91 -2.62,1.25 -3.78,1.23 -28.76,-10.58 -57.72,-20.7 -86.3,-31.76 -1.19,-0.21 -2.32,-0.05 -3.39,0.48 -9.37,3.77 -18.94,7.02 -28.41,10.54 -0.19,23.3 0.01,46.6 -0.16,69.89 -0.1,1.81 0,3.92 -1.41,5.3 -3.12,2.06 -6.59,3.51 -9.82,5.38 -0.48,0.26 -1.45,0.77 -1.93,1.03 -2.13,1.15 -4.22,2.35 -6.35,3.48 -3.23,1.75 -6.28,4.48 -10.23,3.88 -1.18,-2.9 -0.78,-6.09 -0.9,-9.14 0.05,-26.64 0.09,-53.28 -0.07,-79.91 -9.39,-3.82 -19.03,-7.05 -28.48,-10.74 -4.15,-1.44 -7.88,1.33 -11.67,2.53 -25.18,9.21 -50.39,18.32 -75.49,27.76 -1.92,0.76 -4.95,2.66 -6.4,0.24 -0.19,-6.28 -0.03,-12.57 -0.08,-18.85 0.09,-1.28 -0.32,-3.47 1.47,-3.77 19.09,-6.87 38.28,-13.45 57.42,-20.18 1.04,-0.32 1.9,-0.91 2.57,-1.79 -14.77,-4.93 -29.22,-10.78 -43.93,-15.9 -2.45,-1.23 -5.69,-1.4 -7.36,-3.79 -0.55,-2.94 0.52,-5.82 1.12,-8.66 0.98,-4.21 2.22,-8.56 5.06,-11.93 1.81,0.04 3.67,-0.17 5.46,0.28 26.35,9.38 52.87,18.26 79.29,27.45 0.14,-4.13 0.01,-8.25 -0.11,-12.37 -12.65,-11.69 -26.24,-22.34 -39.13,-33.78 0.08,-1.52 0.65,-2.98 2.02,-3.79 5.14,-3.8 9.91,-8.04 14.93,-11.98 m -17.86,76.98 c -19.62,7.2 -39.42,13.91 -59.03,21.14 -1.17,6.4 0.01,13.3 -0.48,19.89 1.85,-0.18 3.7,-0.47 5.44,-1.15 13.87,-5.06 27.7,-10.2 41.57,-15.24 13.25,-4.87 26.72,-9.2 39.75,-14.62 -5.29,-3.39 -11.52,-5.04 -17.12,-7.89 -3.08,-1.59 -6.6,-3.63 -10.13,-2.13 z"
         id="path3" />
      <path
         fill="#83f0a8"
         opacity="1"
         d="m 629.58,506.73 c 26.65,-10.74 53.84,-20.06 80.6,-30.51 1.34,-0.42 2.89,-0.37 4.17,0.29 1.51,3.69 2.75,7.54 3.63,11.43 0.54,2.44 -2.07,3.41 -3.79,4.28 -9.33,4.22 -18.31,9.15 -27.54,13.54 -1.1,0.51 -2.19,1.01 -3.28,1.5 -2.22,1.21 -4.53,2.26 -6.76,3.45 -1.74,0.86 -3.46,1.76 -5.24,2.53 -6.2,2.95 -12.24,6.29 -18.53,9.02 0.01,1.18 0.58,1.98 1.71,2.4 13.63,6.63 27.23,13.33 40.8,20.09 1.35,0.61 2.71,1.25 3.99,2.03 1.06,0.51 2.15,0.99 3.25,1.47 20.15,9.99 40.32,19.96 60.47,29.97 1.98,0.96 4.44,1.14 6.51,0.33 11.33,-5.65 22.6,-11.41 34.06,-16.78 1.94,-1.15 3.97,-2.12 6.03,-3.03 0.48,-0.26 1.45,-0.77 1.93,-1.03 0.5,-0.25 1.51,-0.73 2.01,-0.97 17.56,-8.57 35.25,-16.86 52.78,-25.49 0.5,-0.25 1.5,-0.74 2,-0.98 2.47,-1.1 4.92,-2.24 7.3,-3.52 2.09,-1.13 4.19,-2.31 6.49,-2.99 -0.2,-0.52 -0.59,-1.54 -0.79,-2.06 -5.14,-1.97 -9.82,-4.98 -14.97,-6.95 -9.26,-4.51 -18.61,-8.86 -27.81,-13.48 -6.02,-2.51 -11.75,-5.68 -17.66,-8.42 -1.51,-0.63 -2.76,-1.65 -4.01,-2.63 -0.35,-3.83 1.5,-7.24 2.55,-10.8 0.59,-1.99 2.14,-4.22 4.53,-3.37 32.37,12.32 64.95,24.1 97.23,36.64 0.91,0.84 1.78,1.73 2.72,2.58 0.44,1.55 0.69,3.17 0.59,4.8 -0.28,7.95 0.34,15.94 -0.45,23.87 -0.32,3.96 -3.89,6.36 -6.96,8.26 -22.97,14.29 -45.91,28.62 -68.8,43.04 -5.81,3.48 -11.33,7.5 -17.27,10.72 l -1.52,0.13 c 2.67,-2.27 5.77,-3.94 8.74,-5.78 26.26,-16.78 52.59,-33.45 79.04,-49.92 2.53,-1.74 5.28,-4.11 5.29,-7.45 0.25,-7.58 -0.16,-15.16 0.3,-22.73 -23.35,14.48 -46.72,28.94 -69.79,43.87 -23.23,14.34 -46.21,29.09 -69.5,43.35 -4.71,2.71 -10.1,5.44 -15.71,4.29 -7.62,-1.52 -14.05,-6.14 -20.66,-9.94 -44.12,-25.77 -87.69,-52.45 -131.52,-78.7 -1.63,-0.9 -3.32,-1.66 -5,-2.42 0.06,-1.45 0.18,-2.9 0.32,-4.33 0.87,-1.46 1.75,-3.08 3.45,-3.68 4.96,-2.12 10.01,-4.05 15.07,-5.92 z"
         id="path4" />
      <path
         fill="#83f0a8"
         opacity="1"
         d="m 653.31,602.22 c 4.99,-1.45 10.01,3.86 8.61,8.81 -0.8,6.08 -10.32,7.31 -12.85,1.82 -2.74,-3.93 -0.05,-9.31 4.24,-10.63 z"
         id="path5" />
      <path
         fill="#83f0a8"
         opacity="1"
         d="m 873.41,603.51 c 3.84,-3.54 10.68,-0.46 11.1,4.61 0.76,3.17 -1.29,5.97 -3.61,7.87 -3.57,0.87 -7.78,0.15 -9.6,-3.36 -0.69,-3.08 -0.93,-7.19 2.11,-9.12 z"
         id="path6" />
      <path
         fill="#83f0a8"
         opacity="1"
         d="m 760.7,669.44 c 3.08,-4.15 10.34,-3.17 12.33,1.63 0.01,1.96 0.02,3.93 0.03,5.91 -1.77,3.71 -5.95,4.96 -9.76,4.02 -1.06,-1.08 -2.13,-2.13 -3.23,-3.13 -0.76,-2.75 -1.41,-6.05 0.63,-8.43 z"
         id="path7" />
      <g
         id="#34c494ff">
        <path
           fill="#34c494"
           opacity="1"
           d="m 691.95,433.76 c 3.53,-1.5 7.05,0.54 10.13,2.13 5.6,2.85 11.83,4.5 17.12,7.89 -13.03,5.42 -26.5,9.75 -39.75,14.62 -13.87,5.04 -27.7,10.18 -41.57,15.24 -1.74,0.68 -3.59,0.97 -5.44,1.15 0.49,-6.59 -0.69,-13.49 0.48,-19.89 19.61,-7.23 39.41,-13.94 59.03,-21.14 z"
           id="path8" />
        <path
           fill="#34c494"
           opacity="1"
           d="m 853.13,564.08 c 23.07,-14.93 46.44,-29.39 69.79,-43.87 -0.46,7.57 -0.05,15.15 -0.3,22.73 -0.01,3.34 -2.76,5.71 -5.29,7.45 -26.45,16.47 -52.78,33.14 -79.04,49.92 -2.97,1.84 -6.07,3.51 -8.74,5.78 l 1.52,-0.13 c -21.66,14.12 -43.76,27.63 -65.52,41.62 -2.63,1.81 -5.93,3.24 -9.09,1.86 -20.91,-6.82 -42.01,-13.16 -62.67,-20.66 0.13,-1.07 0.64,-1.88 1.53,-2.44 6.69,-4 13.35,-8.06 20.02,-12.1 2.3,-1.45 -0.69,-2.84 -1.96,-3.6 -26.76,-16.14 -53.14,-32.9 -79.79,-49.21 -6.04,-3.63 -12.16,-7.13 -18.05,-11.01 -2.19,-1.47 -4.46,-3.57 -4.52,-6.41 -0.21,-7.78 -0.43,-15.57 -0.28,-23.35 1.68,0.76 3.37,1.52 5,2.42 43.83,26.25 87.4,52.93 131.52,78.7 6.61,3.8 13.04,8.42 20.66,9.94 5.61,1.15 11,-1.58 15.71,-4.29 23.29,-14.26 46.27,-29.01 69.5,-43.35 z"
           id="path9" />
      </g>
    </g>
  </g>
</svg>
